<svg xmlns="http://www.w3.org/2000/svg" viewBox="0 0 24 24" width="16" height="16"><circle cx="12" cy="12" r="3" fill="none" stroke="currentColor" stroke-width="1.75"/><path fill="none" stroke="currentColor" stroke-width="1.75" stroke-linecap="round" stroke-linejoin="round" d="M19 12a7 7 0 0 0-.1-1.2l2-1.6-2-3.4-2.4.9a7 7 0 0 0-2-1.2L14 3h-4l-.5 2.5a7 7 0 0 0-2 1.2L5.1 5.8l-2 3.4 2 1.6A7 7 0 0 0 5 12a7 7 0 0 0 .1 1.2l-2 1.6 2 3.4 2.4-.9a7 7 0 0 0 2 1.2L10 21h4l.5-2.5a7 7 0 0 0 2-1.2l2.4.9 2-3.4-2-1.6c.1-.4.1-.8.1-1.2Z"/></svg>
